<svg id="Warstwa_1" data-name="Warstwa 1" xmlns="http://www.w3.org/2000/svg" viewBox="0 0 2500 1835.99343"><defs><style>.cls-1{fill:#fff;}</style></defs><title>CleanCloud_Icon_White</title><path class="cls-1" d="M1898.09026,687.67424s-.0199-3.28756-.12558-8.1252c-6.8093-311.696-270.81536-561.66814-591.92633-577.12494-8.34553-.40172-20.578-.74061-32.03387-.74061-227.87068,0-426.98595,119.11943-535.48467,296.092-54.90142,86.26445-87.08019,185.25872-87.08019,288.67517v19.05181c0,308.22072,238.52866,562.31284,546.55082,599.09625a569.53666,569.53666,0,0,0,77.28595,5.48477h109.91016v627.59346h514.81211c345.18123,0,625.00134-279.82011,625.00134-624.996C2525,967.49435,2243.27149,687.67424,1898.09026,687.67424Z" transform="translate(-25 -101.68349)"/><path class="cls-1" d="M432.76777,726.51847C194.69528,814.79006,25,1043.89479,25,1312.681c0,345.17586,279.82547,624.996,625.00134,624.996h515.36488V1522.7768C764.99914,1470.44067,452.02352,1136.24509,432.76777,726.51847Z" transform="translate(-25 -101.68349)"/></svg>